<svg id="Layer_1" data-name="Layer 1" xmlns="http://www.w3.org/2000/svg" viewBox="0 0 582.17 582.17">
  <defs>
    <style>
      .cls-1 {
        fill: #304156;
      }

      .cls-2, .cls-3 {
        fill: none;
        stroke: #fff;
        fill-rule: evenodd;
      }

      .cls-2 {
        stroke-miterlimit: 10;
      }

      .cls-4 {
        fill: #fff;
      }

      .cls-5 {
        fill: #bf9249;
      }
    </style>
  </defs>
  <g>
    <path class="cls-1" d="M575.63,228.44c39.22,188.13-103.32,353.73-284.54,353.73A290.48,290.48,0,0,1,0,291.09C0,109.87,165.6-32.67,353.73,6.54A286.78,286.78,0,0,1,575.63,228.44Z"/>
    <g>
      <g>
        <g>
          <path class="cls-2" d="M282.19,272l-8.48-1.23c-4.68-8.56-9.51-18-14.91-27.09-5.27-8.89-11.25-17.35-16.67-26.14-12.76-20.71-32.74-28-55.48-29.55-23.72-1.66-42.68,8.3-59,24.92-8.21,8.38-13.62,18.35-19.23,28.37C96,263.61,90.39,288.06,87.67,313c-1.85,16.88.27,33.91,3.84,50.83,3.52,16.64,11.58,30.57,22.45,42.6a48.09,48.09,0,0,0,33.49,15.93c19.83,1,35.91-7.46,51.13-19.4,14.93-11.7,25.4-27,36.5-41.76,7.6-10.12,13.3-21.67,20-32.48,3.18-5.14,6.5-10.22,10.1-15.07,3.07-4.15,7-5.11,11.91-4.2"/>
          <path class="cls-2" d="M310.63,293.09c3.8-5.17,8.38-7.06,15.25-6.87,17.88.51,35.8,0,53.67-.68,21.33-.86,37.09-12,49.18-28.77,21-29.14,18.15-58.91,1.9-88.92-13.47-24.87-32.24-45-55.11-61.43-15.35-11-31.65-19.51-50.22-24.7a94.67,94.67,0,0,0-44.58-1.67c-14.59,2.88-26.38,11.17-34.05,24.92-10.36,18.59-10.09,37.83-5.38,57.62,6.64,27.85,20.86,52.41,33.92,77.46,1.74,3.34,3.23,6.85,5.27,10,4.64,7.21,4.53,14.24-.08,21.33"/>
          <path class="cls-2" d="M475.68,382.85c6-15-1-38.53-12.87-50.41-8.18-8.21-17.31-15.51-27.47-19.6-17.11-6.88-35.54-10.21-54.13-11.27-21.53-1.23-43.07-2.2-65.24-3.33l-5-7.15a30.46,30.46,0,0,1-3,1.38c-5.62,7.69-17.57,12.47-27.57,11.58a7.62,7.62,0,0,0-1.43,0c-.35.6-.68,1.2-.95,1.79a2.29,2.29,0,0,1-1.7,1.42,12.53,12.53,0,0,1-.69,12c-6.39,9.93-12.47,20.05-18.65,30.12-.6,1-.8,2.22-1.5,3.09-9.78,12.23-13.79,26.64-14.71,41.81-.78,13,4.53,24.74,10.38,36.13,4.79,9.3,11.58,16.68,19.28,23.77,6.16,5.68,13.46,7.42,20.62,9.84,8,2.69,16.27,5.62,24.52,5.95,13.93.55,28.17.55,41.87-1.75,32.65-5.48,62.07-18.33,87.7-40.17C459.78,415.59,468.76,400.07,475.68,382.85Z"/>
          <path class="cls-3" d="M308.1,294c-3.39,7.27-19.86,15.25-26.43,10.66-7.62-5.33-12.36-12.62-9-19.89s15.56-12.6,23.58-8C303.22,280.79,311.49,286.72,308.1,294Z"/>
        </g>
        <g>
          <path class="cls-4" d="M289.57,223q9.56,6.22,9.55,12.6a9.11,9.11,0,0,1-1.72,5.17q-4.38,6.77-24,11-14.06,3.06-47.6,6.77-14.59,1.72-22.14,2.78,1.18,42.3,5.17,61.4a3.23,3.23,0,0,1-.73,3.05,3.8,3.8,0,0,1-2.85,1.19,3.07,3.07,0,0,1-3.32-2.79q-.93-4.77-2.78-22.14-2-20.3-2.52-35.8c-4.34,2.47-7.69,3.71-10.08,3.71q-5.44,0-5.44-5.57a13.58,13.58,0,0,1,.13-1.72q.93-4.91,15.12-7.3,0-15.37,2.65-17.23a3,3,0,0,1,1.73-.54c2.3,0,3.45,1.29,3.45,3.85a4.8,4.8,0,0,1-.14,1.19q-.53,1.86-.53,11.54,7.43-.93,21.48-2.52,25.86-2.91,37-4.77,30-5.18,30-11.41,0-3.31-8.89-8.09a64,64,0,0,0-10.34-4.64q-42.57-14.44-142.94-14.45-53.83,0-81.29,4,3.45.14,3.45,3.58a2.86,2.86,0,0,1-1.46,2.52Q48.11,220,42.4,220a21.22,21.22,0,0,1-8.82-1.52c-2.16-1-3.25-2.5-3.25-4.45s1-3.49,2.92-4.9q5.18-3.58,32.09-5.71,26.52-2.25,62.32-2.25,44.29,0,82,3.45Q253,208.5,275,216.06A61.67,61.67,0,0,1,289.57,223Z"/>
          <path class="cls-4" d="M232.82,297.35A38.68,38.68,0,0,1,234,305.3q0,5.44-3.85,5.44-4.36,0-4.37-7.82a20.44,20.44,0,0,1,.79-6.1q-2.39-8.22-4.77-11.14a3.17,3.17,0,0,1-.79-2.12,2.58,2.58,0,0,1,2.91-2.92q2.79,0,6.5,9.15,8.49-10.21,27.05-14.19a3.13,3.13,0,0,1,2.52.53,2.64,2.64,0,0,1,1.06,2.26,2.8,2.8,0,0,1-2.25,2.91A75.58,75.58,0,0,0,244,286.61Q235.73,290.86,232.82,297.35Z"/>
          <path class="cls-4" d="M267.16,290.19q0-7,7.42-14.65T289,267.91q5.7,0,14.72,7.16,9.54,7.56,9.55,13.39,0,7.17-7.63,14.06c-5.08,4.6-10.15,6-14.92,6.89-5.16,1-11.08,3-16.23-1.38C269.18,303.48,267.16,294.87,267.16,290.19Zm22.41-14.85c-3.71,0-7.37,2-10.7,6.35-2.88,3.71-5.24,6.63-5.21,8.5a12.53,12.53,0,0,0,5.33,10.2,15,15,0,0,0,12.68,2c6.16-1.67-1.07,1.53,9.57-4.42a10.56,10.56,0,0,0,5.57-9.41q0-3.86-6.63-8.56T289.57,275.34Z"/>
          <path class="cls-4" d="M361.31,297.22q-3.85,1.18-20.16,3.58L332,302.12q2.65,19.36,6.76,39.92,5.31,25.84,8.62,29.17,2.52,2.52,0,4.9c-1.59,1.68-3.23,1.68-4.9,0q-5.58-5.57-12.47-43.22-6-32.24-6-39.12c0-2.39,1.14-3.58,3.44-3.58s3.58,1.19,3.58,3.58v1.46l9.28-1.46Q346.59,293,353,292q8.35-1.46,10.08-3-3.58-3.31-23.6-7.3-18.44-3.57-26.26-3.58-3.45,0-3.45-3.58t3.45-3.45q9,0,28.91,3.85,28.5,5.56,28.51,14.06Q370.59,294.56,361.31,297.22Z"/>
          <path class="cls-4" d="M405.2,306.1q-12.6,0-17-1.06-9.68-2.12-12.59-9.81a10.12,10.12,0,0,1-.67-3.72q0-6.75,6.1-13.06t12.33-6.3a8.53,8.53,0,0,1,7.17,3.52,13.2,13.2,0,0,1,2.65,8.15q0,11.67-19.1,12.87Q389,300,405.2,300c1.94,0,2.92,1,2.92,3.05S407.14,306.1,405.2,306.1Zm-11.81-27.85q-4,0-7.95,4.45t-4.38,8.55c3.19-.53,6.37-1.11,9.55-1.72q6.5-1.47,6.5-5.71Q397.11,278.26,393.39,278.25Z"/>
          <path class="cls-4" d="M424.69,293.63q0,15.66.53,19.37a4,4,0,0,1,1.46,3.44,7.77,7.77,0,0,1-1.13,4.11,3.22,3.22,0,0,1-2.72,1.86q-2.91,0-4-11.4a134.4,134.4,0,0,1-.66-14.85q0-14.19.27-42.57t.27-42.57q0-6.63,3.38-6.63,2.7,0,3.24,6.24c-.09-.45-.13,2.3-.13,8.22q0,12.47-.27,37.39T424.69,293.63Z"/>
          <path class="cls-4" d="M435.16,293.63q0,15.66.53,19.37a3.93,3.93,0,0,1,1.46,3.44,7.77,7.77,0,0,1-1.13,4.11,3.2,3.2,0,0,1-2.71,1.86q-2.93,0-4-11.4a131.62,131.62,0,0,1-.67-14.85q0-14.19.27-42.57t.28-42.57q0-6.63,3.37-6.63,2.7,0,3.25,6.24c-.09-.45-.14,2.3-.14,8.22q0,12.47-.26,37.39T435.16,293.63Z"/>
          <path class="cls-4" d="M472,306.1q-12.6,0-17-1.06-9.68-2.12-12.59-9.81a10.12,10.12,0,0,1-.67-3.72q0-6.75,6.1-13.06t12.33-6.3a8.54,8.54,0,0,1,7.17,3.52,13.2,13.2,0,0,1,2.65,8.15q0,11.67-19.1,12.87Q455.85,300,472,300c1.94,0,2.91,1,2.91,3.05S474,306.1,472,306.1Zm-11.81-27.85q-4,0-8,4.45t-4.38,8.55c3.19-.53,6.37-1.11,9.55-1.72q6.49-1.47,6.5-5.71Q463.94,278.26,460.22,278.25Z"/>
          <path class="cls-4" d="M535.81,301.59c-2.12,0-3.19-1.1-3.19-3.31a3.5,3.5,0,0,1,.67-2.12q.12-2.66-7.69-3.19,1.85,9.28,3.44,15a7.28,7.28,0,0,1,2.52,3.51,13,13,0,0,1,1.06,5q0,4.24-3.31,4.25-4.51,0-8.09-16.45-3.45,2.52-12.46,4.38a67.1,67.1,0,0,1-13.53,1.72q-13.39,0-13.39-7.69,0-6.9,14.74-11.94a92.37,92.37,0,0,1,21-4.64q-3.33-18.17-11.43-74.52a118.65,118.65,0,0,0-3.07-16.17,4.88,4.88,0,0,1-.14-1.2c0-2.38,1.06-3.58,3.18-3.58a3.38,3.38,0,0,1,2.26.93Q510,192.86,515,227.6q5.7,38.46,9.28,58.48,15.65,1.07,15.65,10.08a7,7,0,0,1-1.06,3.71A3.38,3.38,0,0,1,535.81,301.59Zm-15.12-2.65-1.33-6.37a103,103,0,0,0-18.16,3.32q-14.46,3.72-13.66,7.29c.44,1.86,2.39,2.79,5.83,2.79q6,0,17.11-3.58Q521.08,299.08,520.69,298.94Z"/>
        </g>
      </g>
      <path class="cls-4" d="M504.46,288.94a212.3,212.3,0,0,1-11.24,67.22A216.23,216.23,0,0,1,72.94,307.05a202.88,202.88,0,0,1,5.89-69A216.15,216.15,0,0,1,263.55,77.27a218.28,218.28,0,0,1,67.85,2.91,216.23,216.23,0,0,1,170.12,176,209,209,0,0,1,2.94,34.06c0,.32,0,1.74,0,1.74a11.68,11.68,0,0,0,0-3.07,222.88,222.88,0,0,0-9.86-66.48A216.24,216.24,0,0,0,72.46,273.24a235.06,235.06,0,0,0,5,67.18A216.12,216.12,0,0,0,262.66,506.83a218.25,218.25,0,0,0,69-2.86A215.23,215.23,0,0,0,394,480.75a217.13,217.13,0,0,0,88.73-94,215.1,215.1,0,0,0,19.59-64,233.27,233.27,0,0,0,2.18-32.45,22.6,22.6,0,0,0,0-3.08C504.51,287.31,504.46,288.55,504.46,288.94Z"/>
    </g>
  </g>
  <path class="cls-5" d="M286.87,275.7l1.39-.18a14.16,14.16,0,0,1,2.83.07l1.69.36c.65.15.32.13,1.9.66l4.15,2.44c.18.11.44.37.61.49l2.87,1.95a7.35,7.35,0,0,1,1.2,1l1.47,1.58a7,7,0,0,1,1.77,3.38h0a7.09,7.09,0,0,1-.19,3.71l-.49,1.47a7,7,0,0,1-.39,1l-.35.69a7.08,7.08,0,0,1-1.77,2.26L302,297.88a6.62,6.62,0,0,1-1.41.93l-3.79,1.89a5.63,5.63,0,0,1-.76.33l-2.92,1.06a6.63,6.63,0,0,1-.9.25l-2,.45a4,4,0,0,1-1.2.2l-1.82.08a8.52,8.52,0,0,1-1.77-.15l-1.14-.2a11.08,11.08,0,0,1-1.78-.46l-1.65-.71a5.14,5.14,0,0,1-1.13-.66l-1.4-1a6.61,6.61,0,0,1-1-.79l-.24-.21a9.54,9.54,0,0,1-1-1.37l-.84-1.25a18.12,18.12,0,0,1-.73-1.7l-.32-1a8.66,8.66,0,0,1-.47-1.85l-.09-1a8.12,8.12,0,0,1,.69-3l.29-.73a6.8,6.8,0,0,1,1.08-1.86l2.78-3.47c.1-.13.21-.25.32-.37l1.94-2.11a6.81,6.81,0,0,1,1.43-1.19l1.8-1.14A8.18,8.18,0,0,1,286.87,275.7Z"/>
</svg>
